<svg width="512" height="512" viewBox="0 0 512 512" fill="none" xmlns="http://www.w3.org/2000/svg">
<path d="M437.019 74.981C388.667 26.629 324.38 0 256 0C221.65 0 188.308 6.692 156.9 19.889L162.746 33.802C189.989 22.355 218.787 16.124 248.454 15.22V56.259C199.021 58.103 154.126 77.978 120.163 109.49L91.09 80.419C104.99 67.333 120.545 55.792 137.558 46.169L130.126 33.034C91.332 54.98 58.761 86.826 35.936 125.129C12.427 164.578 0 209.833 0 256C0 324.38 26.629 388.668 74.981 437.019C123.333 485.37 187.619 512 256 512C324.38 512 388.667 485.371 437.019 437.019C485.372 388.667 512 324.38 512 256C512 187.62 485.372 123.333 437.019 74.981ZM496.78 248.454H455.741C453.934 200.03 434.831 155.956 404.429 122.25L433.445 93.234C471.243 134.41 494.932 188.727 496.78 248.454ZM263.546 15.221C325.293 17.132 381.258 42.384 422.897 82.439L393.911 111.425C359.712 78.787 313.987 58.142 263.546 56.259V15.221ZM80.43 91.1L109.492 120.162C77.979 154.126 58.104 199.021 56.26 248.454H15.214C17.076 189.229 40.788 133.4 80.43 91.1ZM15.221 263.546H56.258C58.14 313.987 78.786 359.713 111.424 393.912L82.439 422.897C42.384 381.258 17.131 325.292 15.221 263.546ZM248.454 496.779C188.727 494.932 134.41 471.243 93.235 433.443L122.251 404.428C155.957 434.83 200.031 453.933 248.455 455.74V496.779H248.454ZM263.547 496.779V455.745H263.546C286.813 454.887 309.459 450.07 330.965 441.364L325.302 427.375C303.285 436.287 279.969 440.806 256.001 440.806C154.098 440.806 71.195 357.902 71.195 256C71.195 154.098 154.097 71.194 256 71.194C357.902 71.194 440.806 154.098 440.806 256C440.806 323.137 404.299 385.102 345.533 417.71L352.854 430.906C367.151 422.973 380.225 413.428 391.91 402.581L420.84 431.511C379.424 470.432 324.284 494.9 263.547 496.779ZM431.511 420.84L402.578 391.907C434.666 357.258 453.927 311.859 455.75 263.546H496.779C494.9 324.284 470.432 379.425 431.511 420.84Z" fill="#fff"/>
<path d="M264.02 96.1719H247.991V111.263H264.02V96.1719Z" fill="#fff"/>
<path d="M264.02 400.735H247.991V415.826H264.02V400.735Z" fill="#fff"/>
<path d="M111.739 248.453H95.709V263.544H111.739V248.453Z" fill="#fff"/>
<path d="M151.811 136.254H135.782V151.345H151.811V136.254Z" fill="#fff"/>
<path d="M384.237 144.263H368.208V159.354H384.237V144.263Z" fill="#fff"/>
<path d="M384.237 352.644H368.208V367.735H384.237V352.644Z" fill="#fff"/>
<path d="M143.793 352.644H127.763V367.735H143.793V352.644Z" fill="#fff"/>
<path d="M416.292 248.453H400.262V263.544H416.292V248.453Z" fill="#fff"/>
<path d="M174.436 256L256 364.752L337.564 256L256 147.248L174.436 256ZM256 339.6L193.301 256L256 172.4L318.699 256L256 339.6Z" fill="#fff"/>
</svg>
